<svg xmlns="http://www.w3.org/2000/svg" viewBox="0 0 1440 320"><path fill="#00cba9" fill-opacity="1" d="M0,96L24,112C48,128,96,160,144,176C192,192,240,192,288,176C336,160,384,128,432,128C480,128,528,160,576,170.7C624,181,672,171,720,186.7C768,203,816,245,864,245.3C912,245,960,203,1008,186.7C1056,171,1104,181,1152,170.7C1200,160,1248,128,1296,106.7C1344,85,1392,75,1416,69.3L1440,64L1440,320L1416,320C1392,320,1344,320,1296,320C1248,320,1200,320,1152,320C1104,320,1056,320,1008,320C960,320,912,320,864,320C816,320,768,320,720,320C672,320,624,320,576,320C528,320,480,320,432,320C384,320,336,320,288,320C240,320,192,320,144,320C96,320,48,320,24,320L0,320Z"></path></svg>